*******************************************************************************
 Spy Kids All The Time In The World.2011.720p.BRRip.Xvid.AC3- SiNiSTER
*******************************************************************************
-------------------------------------------------------------------------------
 General Information
-------------------------------------------------------------------------------
[img]http://www.pix2links.com/image/foHr.jpg[/img]
Format : AVI
Format/Info : Audio Video Interleave
Format profile : OpenDML
File size : 2.21 GiB
Duration : 1h 27mn
Overall bit rate : 3 611 Kbps
Writing library : MPlayer
Video
ID : 0
Format : MPEG-4 Visual
Format profile : Advanced Simple@L5
Format settings, BVOP : Yes
Format settings, QPel : No
Format settings, GMC : No warppoints
Format settings, Matrix : Default (H.263)
Muxing mode : Packed bitstream
Codec ID : XVID
Codec ID/Hint : XviD
Duration : 1h 27mn
Bit rate : 3 030 Kbps
Width : 1 280 pixels
Height : 720 pixels
Display aspect ratio : 16:9
Frame rate : 23.976 fps
Color space : YUV
Chroma subsampling : 4:2:0
Bit depth : 8 bits
Scan type : Progressive
Bits/(Pixel*Frame) : 0.137
Stream size : 1.86 GiB (84%)
Writing library : XviD 1.2.1 (UTC 2008-12-04)
Audio
ID : 1
Format : AC-3
Format/Info : Audio Coding 3
Mode extension : CM (complete main)
Codec ID : 2000
Duration : 1h 27mn
Bit rate mode : Constant
Bit rate : 576 Kbps
Channel(s) : 6 channels
Channel positions : Front: L C R, Side: L R, LFE
Sampling rate : 48.0 KHz
Bit depth : 16 bits
Stream size : 362 MiB (16%)
Alignment : Split accross interleaves
Interleave, duration : 500 ms (11.99 video frames)
Interleave, preload duration : 500 ms
Video Source: Spy.Kids.All.the.Time.in.the.World.1080p.Bluray.x264-CBGB.....thanks	
Audio Source: Spy.Kids.All.the.Time.in.the.World.1080p.Bluray.x264-CBGB.....thanks
Greets:
DarkScene,HDScene,Noir,CrEwSaDe,blackjesus,ViSiON,HDLiTE,UnKnOwN,IMAGiNE,
FLAWL3SS,Rx,ELEKTRI4KA,CiNEDUB,BDK,SAFCuk009,HiVE-CM8..... and everybody else we 
respect.. u know who u are
-------------------------------------------------------------------------------
 Post Information
-------------------------------------------------------------------------------
Encoded by...........: SiNiSTER
 
Have sumthing to offer..looking for suppliers... cammers,cams,screeners, audio
supplier.. and any pre retail DVD/BR any RC...if u can provide any email us at
sinister@hushmail.me
-------------------------------------------------------------------------------
 Release Notes
-------------------------------------------------------------------------------
source was very nice.. made a script to resize, denoise, adjust coloring slightly 
and sharpen.. then converted DTS to AC3 and remuxed to my encode....enjoy
-------------------------------------------------------------------------------
 ScreenShots
------------------------------------------------------------------------------- 
http://www.pix2links.com/image/IpVJ7.png 
http://www.pix2links.com/image/qg6Yo.png 
http://www.pix2links.com/image/ozj08.png 
http://www.pix2links.com/image/9OnMk.png 
http://www.pix2links.com/image/ztdRy.jpg
-------------------------------------------------------------------------------
[img]http://leetleech.org/images/33506450373550172140.gif[/img]
-------------------------------------------------------------------------------
Generated with Cool NFO Creator - http://fly.to/coolbeans
-------------------------------------------------------------------------------
[img]http://www.pix2links.com/images/33502453931372952618.gif[/img]